<svg xmlns="http://www.w3.org/2000/svg" viewBox="0 0 32 32">
  <defs>
    <linearGradient id="g" x1="0%" y1="0%" x2="100%" y2="100%">
      <stop offset="0%" style="stop-color:#059669"/>
      <stop offset="100%" style="stop-color:#0d9488"/>
    </linearGradient>
  </defs>
  <rect width="32" height="32" rx="8" fill="url(#g)"/>
  <path d="M16 5C10.5 5 6 8.8 6 13.5c0 1.7.6 3.3 1.7 4.6L6 22l5.2-1.7c1.5.6 3.1.9 4.8.9 5.5 0 10-3.8 10-8.7S21.5 5 16 5z" fill="white" fill-opacity="0.95"/>
  <circle cx="16" cy="12" r="1.8" fill="#059669"/>
  <path d="M16 7.5l.6 1.8 1.9-.5-1.2 1.3 1.5 1.1-1.8-.2-.6 1.3-.6-1.3-1.8.2 1.5-1.1-1.2-1.3 1.9.5z" fill="#059669" opacity="0.7" transform="scale(0.6) translate(12, 4)"/>
  <line x1="16" y1="13.5" x2="12.5" y2="16" stroke="#059669" stroke-width="0.8" stroke-linecap="round" opacity="0.6"/>
  <line x1="16" y1="13.5" x2="19.5" y2="16" stroke="#059669" stroke-width="0.8" stroke-linecap="round" opacity="0.6"/>
  <circle cx="12.5" cy="16" r="1" fill="#059669" opacity="0.5"/>
  <circle cx="19.5" cy="16" r="1" fill="#059669" opacity="0.5"/>
</svg>
