<svg xmlns="http://www.w3.org/2000/svg" viewBox="0 0 512 512" fill="none">
  <defs>
    <linearGradient id="bubbleGrad" x1="0%" y1="0%" x2="100%" y2="100%">
      <stop offset="0%" style="stop-color:#059669"/>
      <stop offset="100%" style="stop-color:#0d9488"/>
    </linearGradient>
    <linearGradient id="sparkleGrad" x1="0%" y1="0%" x2="100%" y2="100%">
      <stop offset="0%" style="stop-color:#ffffff"/>
      <stop offset="100%" style="stop-color:#d1fae5"/>
    </linearGradient>
    <filter id="shadow" x="-10%" y="-10%" width="130%" height="130%">
      <feDropShadow dx="0" dy="4" stdDeviation="12" flood-color="#059669" flood-opacity="0.3"/>
    </filter>
  </defs>
  <!-- Chat bubble body -->
  <path d="M256 52C141.1 52 48 132.6 48 232c0 35.2 12.6 68 34.4 96.2L52 428l106.8-34.6C185.6 406.4 219.6 412 256 412c114.9 0 208-80.6 208-180S370.9 52 256 52z" fill="url(#bubbleGrad)" filter="url(#shadow)"/>
  <!-- Inner subtle ring -->
  <ellipse cx="256" cy="228" rx="120" ry="100" fill="none" stroke="white" stroke-opacity="0.12" stroke-width="2"/>
  <!-- AI Brain/Circuit sparkle element -->
  <!-- Central node -->
  <circle cx="256" cy="210" r="18" fill="white" fill-opacity="0.95"/>
  <circle cx="256" cy="210" r="10" fill="url(#bubbleGrad)"/>
  <!-- Top sparkle -->
  <path d="M256 155 L260 170 L275 166 L264 178 L278 188 L262 186 L256 200 L250 186 L234 188 L248 178 L237 166 L252 170 Z" fill="white" fill-opacity="0.9"/>
  <!-- Connection lines (circuit pattern) -->
  <line x1="256" y1="200" x2="200" y2="250" stroke="white" stroke-opacity="0.6" stroke-width="2.5" stroke-linecap="round"/>
  <line x1="256" y1="200" x2="312" y2="250" stroke="white" stroke-opacity="0.6" stroke-width="2.5" stroke-linecap="round"/>
  <line x1="256" y1="200" x2="220" y2="275" stroke="white" stroke-opacity="0.4" stroke-width="2" stroke-linecap="round"/>
  <line x1="256" y1="200" x2="292" y2="275" stroke="white" stroke-opacity="0.4" stroke-width="2" stroke-linecap="round"/>
  <!-- Outer nodes -->
  <circle cx="200" cy="250" r="8" fill="white" fill-opacity="0.85"/>
  <circle cx="312" cy="250" r="8" fill="white" fill-opacity="0.85"/>
  <circle cx="220" cy="275" r="6" fill="white" fill-opacity="0.65"/>
  <circle cx="292" cy="275" r="6" fill="white" fill-opacity="0.65"/>
  <!-- Small sparkle dots -->
  <circle cx="185" cy="195" r="3" fill="white" fill-opacity="0.5"/>
  <circle cx="330" cy="200" r="3" fill="white" fill-opacity="0.5"/>
  <circle cx="210" cy="305" r="3" fill="white" fill-opacity="0.4"/>
  <circle cx="305" cy="305" r="3" fill="white" fill-opacity="0.4"/>
  <!-- Top-right sparkle accent -->
  <path d="M340 140 L344 152 L356 148 L348 156 L360 162 L348 160 L344 172 L340 160 L328 162 L336 156 L328 148 L340 152 Z" fill="white" fill-opacity="0.7" transform="scale(0.7) translate(145, 50)"/>
</svg>