<svg xmlns="http://www.w3.org/2000/svg" viewBox="0 0 180 40" fill="none">
  <defs>
    <linearGradient id="logoGrad" x1="0%" y1="0%" x2="100%" y2="100%">
      <stop offset="0%" style="stop-color:#059669"/>
      <stop offset="100%" style="stop-color:#0d9488"/>
    </linearGradient>
  </defs>
  <!-- Mini chat bubble icon -->
  <path d="M20 4C10.6 4 3 10.4 3 18.4c0 2.8 1 5.4 2.7 7.7L3 32l8.5-2.8c2.3 1 4.9 1.5 7.6 1.5 9.4 0 17-6.4 17-14.3C36.1 10.4 29.4 4 20 4z" fill="url(#logoGrad)"/>
  <!-- AI sparkle inside bubble -->
  <circle cx="20" cy="17" r="2.5" fill="white" fill-opacity="0.95"/>
  <path d="M20 10.5 L20.8 13 L23.2 12.3 L21.5 14 L23.6 15.5 L21 15.2 L20 17 L19 15.2 L16.4 15.5 L18.5 14 L16.8 12.3 L19.2 13 Z" fill="white" fill-opacity="0.85" transform="scale(0.65) translate(10.5, 5)"/>
  <!-- Connection dots -->
  <circle cx="15.5" cy="21" r="1.2" fill="white" fill-opacity="0.7"/>
  <circle cx="24.5" cy="21" r="1.2" fill="white" fill-opacity="0.7"/>
  <line x1="20" y1="19" x2="15.5" y2="21" stroke="white" stroke-opacity="0.5" stroke-width="0.8"/>
  <line x1="20" y1="19" x2="24.5" y2="21" stroke="white" stroke-opacity="0.5" stroke-width="0.8"/>
  <!-- Text "Growmi" -->
  <text x="42" y="27" font-family="system-ui, -apple-system, 'Segoe UI', sans-serif" font-size="22" font-weight="700" fill="#0F172A" letter-spacing="-0.5">
    <tspan>Grow</tspan><tspan fill="#059669">mi</tspan>
  </text>
</svg>